<svg xmlns="http://www.w3.org/2000/svg" xmlns:xlink="http://www.w3.org/1999/xlink" version="1.1" width="256" height="256" viewBox="0 0 256 256" xml:space="preserve">

<defs>
</defs>
<g style="stroke: none; stroke-width: 0; stroke-dasharray: none; stroke-linecap: butt; stroke-linejoin: miter; stroke-miterlimit: 10; fill: none; fill-rule: nonzero; opacity: 1;" transform="translate(1.4065934065934016 1.4065934065934016) scale(2.81 2.81)" >
	<path d="M 85.096 41.451 L 28.693 83.988 c -1.07 0.807 -2.59 0.593 -3.397 -0.476 L 1.489 51.946 c -0.807 -1.07 -0.593 -2.59 0.476 -3.397 L 58.368 6.012 c 1.07 -0.807 2.59 -0.593 3.397 0.476 l 23.807 31.567 C 86.378 39.124 86.165 40.645 85.096 41.451 z" style="stroke: none; stroke-width: 1; stroke-dasharray: none; stroke-linecap: butt; stroke-linejoin: miter; stroke-miterlimit: 10; fill: rgb(253,220,102); fill-rule: nonzero; opacity: 1;" transform=" matrix(1 0 0 1 0 0) " stroke-linecap="round" />
	<path d="M 27.236 85.475 c -1.04 0 -2.066 -0.47 -2.739 -1.36 L 0.691 52.548 c -0.551 -0.73 -0.785 -1.632 -0.658 -2.538 c 0.127 -0.906 0.6 -1.708 1.33 -2.26 L 57.766 5.213 c 0.731 -0.55 1.63 -0.786 2.539 -0.657 c 0.906 0.127 1.708 0.599 2.259 1.33 l 23.807 31.567 c 0.551 0.731 0.784 1.632 0.657 2.538 c -0.127 0.906 -0.6 1.708 -1.33 2.259 L 29.295 84.787 C 28.679 85.251 27.955 85.475 27.236 85.475 z M 59.825 6.522 c -0.308 0 -0.605 0.099 -0.854 0.288 L 2.568 49.348 c -0.304 0.229 -0.5 0.562 -0.553 0.939 c -0.053 0.377 0.044 0.752 0.273 1.056 L 26.094 82.91 c 0.473 0.627 1.368 0.755 1.997 0.279 l 56.402 -42.536 c 0.001 0 0.001 0 0.001 0 c 0.304 -0.229 0.501 -0.563 0.554 -0.94 c 0.053 -0.377 -0.045 -0.752 -0.274 -1.056 L 60.967 7.09 c -0.229 -0.304 -0.562 -0.5 -0.94 -0.553 C 59.959 6.527 59.892 6.522 59.825 6.522 z" style="stroke: none; stroke-width: 1; stroke-dasharray: none; stroke-linecap: butt; stroke-linejoin: miter; stroke-miterlimit: 10; fill: rgb(0,0,0); fill-rule: nonzero; opacity: 1;" transform=" matrix(1 0 0 1 0 0) " stroke-linecap="round" />
	<path d="M 26.314 72.164 c -0.303 0 -0.603 -0.137 -0.799 -0.397 c -0.333 -0.441 -0.245 -1.068 0.196 -1.401 l 7.774 -5.863 c 0.441 -0.332 1.068 -0.245 1.4 0.196 c 0.333 0.441 0.245 1.068 -0.196 1.401 l -7.774 5.863 C 26.735 72.098 26.524 72.164 26.314 72.164 z" style="stroke: none; stroke-width: 1; stroke-dasharray: none; stroke-linecap: butt; stroke-linejoin: miter; stroke-miterlimit: 10; fill: rgb(0,0,0); fill-rule: nonzero; opacity: 1;" transform=" matrix(1 0 0 1 0 0) " stroke-linecap="round" />
	<path d="M 39.425 62.276 c -0.303 0 -0.603 -0.138 -0.799 -0.397 c -0.333 -0.441 -0.245 -1.068 0.196 -1.401 l 7.774 -5.863 c 0.443 -0.333 1.068 -0.242 1.401 0.196 c 0.332 0.441 0.244 1.068 -0.196 1.401 l -7.775 5.863 C 39.846 62.211 39.634 62.276 39.425 62.276 z" style="stroke: none; stroke-width: 1; stroke-dasharray: none; stroke-linecap: butt; stroke-linejoin: miter; stroke-miterlimit: 10; fill: rgb(0,0,0); fill-rule: nonzero; opacity: 1;" transform=" matrix(1 0 0 1 0 0) " stroke-linecap="round" />
	<path d="M 52.536 52.389 c -0.304 0 -0.603 -0.137 -0.8 -0.397 c -0.332 -0.441 -0.244 -1.068 0.196 -1.401 l 7.773 -5.862 c 0.444 -0.333 1.069 -0.243 1.401 0.196 c 0.332 0.441 0.244 1.068 -0.196 1.4 l -7.773 5.863 C 52.957 52.323 52.745 52.389 52.536 52.389 z" style="stroke: none; stroke-width: 1; stroke-dasharray: none; stroke-linecap: butt; stroke-linejoin: miter; stroke-miterlimit: 10; fill: rgb(0,0,0); fill-rule: nonzero; opacity: 1;" transform=" matrix(1 0 0 1 0 0) " stroke-linecap="round" />
	<path d="M 65.646 42.501 c -0.304 0 -0.603 -0.137 -0.8 -0.398 c -0.332 -0.441 -0.244 -1.068 0.196 -1.4 l 7.774 -5.863 c 0.443 -0.333 1.068 -0.243 1.401 0.196 c 0.332 0.441 0.244 1.068 -0.196 1.4 l -7.774 5.863 C 66.067 42.435 65.855 42.501 65.646 42.501 z" style="stroke: none; stroke-width: 1; stroke-dasharray: none; stroke-linecap: butt; stroke-linejoin: miter; stroke-miterlimit: 10; fill: rgb(0,0,0); fill-rule: nonzero; opacity: 1;" transform=" matrix(1 0 0 1 0 0) " stroke-linecap="round" />
	<path d="M 46.318 27.496 c -0.304 0 -0.603 -0.137 -0.799 -0.398 c -0.333 -0.441 -0.245 -1.068 0.196 -1.4 l 12.88 -9.714 c 0.444 -0.333 1.068 -0.244 1.401 0.196 c 0.332 0.441 0.244 1.068 -0.196 1.4 L 46.92 27.294 C 46.739 27.43 46.527 27.496 46.318 27.496 z" style="stroke: none; stroke-width: 1; stroke-dasharray: none; stroke-linecap: butt; stroke-linejoin: miter; stroke-miterlimit: 10; fill: rgb(0,0,0); fill-rule: nonzero; opacity: 1;" transform=" matrix(1 0 0 1 0 0) " stroke-linecap="round" />
	<path d="M 86.574 76.631 H 15.929 c -1.34 0 -2.425 -1.086 -2.425 -2.425 V 34.668 c 0 -1.34 1.086 -2.425 2.425 -2.425 h 70.645 c 1.34 0 2.425 1.086 2.425 2.425 v 39.537 C 89 75.545 87.914 76.631 86.574 76.631 z" style="stroke: none; stroke-width: 1; stroke-dasharray: none; stroke-linecap: butt; stroke-linejoin: miter; stroke-miterlimit: 10; fill: rgb(42,188,200); fill-rule: nonzero; opacity: 1;" transform=" matrix(1 0 0 1 0 0) " stroke-linecap="round" />
	<path d="M 86.574 77.632 H 15.929 c -1.889 0 -3.425 -1.537 -3.425 -3.426 V 34.668 c 0 -1.889 1.537 -3.425 3.425 -3.425 h 70.645 c 1.889 0 3.426 1.537 3.426 3.425 v 39.538 C 90 76.095 88.463 77.632 86.574 77.632 z M 15.929 33.243 c -0.786 0 -1.425 0.639 -1.425 1.425 v 39.538 c 0 0.786 0.639 1.426 1.425 1.426 h 70.645 c 0.786 0 1.426 -0.64 1.426 -1.426 V 34.668 c 0 -0.786 -0.64 -1.425 -1.426 -1.425 H 15.929 z" style="stroke: none; stroke-width: 1; stroke-dasharray: none; stroke-linecap: butt; stroke-linejoin: miter; stroke-miterlimit: 10; fill: rgb(0,0,0); fill-rule: nonzero; opacity: 1;" transform=" matrix(1 0 0 1 0 0) " stroke-linecap="round" />
	<path d="M 33.471 52.091 H 23.258 c -0.832 0 -1.507 -0.675 -1.507 -1.507 v -7.736 c 0 -0.832 0.675 -1.507 1.507 -1.507 h 10.212 c 0.832 0 1.507 0.675 1.507 1.507 v 7.736 C 34.977 51.416 34.303 52.091 33.471 52.091 z" style="stroke: none; stroke-width: 1; stroke-dasharray: none; stroke-linecap: butt; stroke-linejoin: miter; stroke-miterlimit: 10; fill: rgb(253,220,102); fill-rule: nonzero; opacity: 1;" transform=" matrix(1 0 0 1 0 0) " stroke-linecap="round" />
	<path d="M 33.47 53.091 H 23.258 c -1.382 0 -2.506 -1.125 -2.506 -2.507 v -7.736 c 0 -1.382 1.125 -2.506 2.506 -2.506 H 33.47 c 1.382 0 2.507 1.125 2.507 2.506 v 7.736 C 35.977 51.966 34.853 53.091 33.47 53.091 z M 23.258 42.341 c -0.279 0 -0.506 0.227 -0.506 0.506 v 7.736 c 0 0.279 0.227 0.507 0.506 0.507 H 33.47 c 0.279 0 0.507 -0.228 0.507 -0.507 v -7.736 c 0 -0.279 -0.228 -0.506 -0.507 -0.506 H 23.258 z" style="stroke: none; stroke-width: 1; stroke-dasharray: none; stroke-linecap: butt; stroke-linejoin: miter; stroke-miterlimit: 10; fill: rgb(0,0,0); fill-rule: nonzero; opacity: 1;" transform=" matrix(1 0 0 1 0 0) " stroke-linecap="round" />
	<path d="M 31.488 65.959 h -9.737 c -0.552 0 -1 -0.447 -1 -1 c 0 -0.553 0.448 -1 1 -1 h 9.737 c 0.552 0 1 0.447 1 1 C 32.488 65.512 32.041 65.959 31.488 65.959 z" style="stroke: none; stroke-width: 1; stroke-dasharray: none; stroke-linecap: butt; stroke-linejoin: miter; stroke-miterlimit: 10; fill: rgb(0,0,0); fill-rule: nonzero; opacity: 1;" transform=" matrix(1 0 0 1 0 0) " stroke-linecap="round" />
	<path d="M 47.909 65.959 h -9.736 c -0.552 0 -1 -0.447 -1 -1 c 0 -0.553 0.448 -1 1 -1 h 9.736 c 0.553 0 1 0.447 1 1 C 48.909 65.512 48.462 65.959 47.909 65.959 z" style="stroke: none; stroke-width: 1; stroke-dasharray: none; stroke-linecap: butt; stroke-linejoin: miter; stroke-miterlimit: 10; fill: rgb(0,0,0); fill-rule: nonzero; opacity: 1;" transform=" matrix(1 0 0 1 0 0) " stroke-linecap="round" />
	<path d="M 64.331 65.959 h -9.737 c -0.553 0 -1 -0.447 -1 -1 c 0 -0.553 0.447 -1 1 -1 h 9.737 c 0.553 0 1 0.447 1 1 C 65.331 65.512 64.884 65.959 64.331 65.959 z" style="stroke: none; stroke-width: 1; stroke-dasharray: none; stroke-linecap: butt; stroke-linejoin: miter; stroke-miterlimit: 10; fill: rgb(0,0,0); fill-rule: nonzero; opacity: 1;" transform=" matrix(1 0 0 1 0 0) " stroke-linecap="round" />
	<path d="M 80.752 65.959 h -9.736 c -0.553 0 -1 -0.447 -1 -1 c 0 -0.553 0.447 -1 1 -1 h 9.736 c 0.553 0 1 0.447 1 1 C 81.752 65.512 81.304 65.959 80.752 65.959 z" style="stroke: none; stroke-width: 1; stroke-dasharray: none; stroke-linecap: butt; stroke-linejoin: miter; stroke-miterlimit: 10; fill: rgb(0,0,0); fill-rule: nonzero; opacity: 1;" transform=" matrix(1 0 0 1 0 0) " stroke-linecap="round" />
	<path d="M 80.752 42.341 H 54.594 c -0.553 0 -1 -0.448 -1 -1 s 0.447 -1 1 -1 h 26.158 c 0.553 0 1 0.448 1 1 S 81.304 42.341 80.752 42.341 z" style="stroke: none; stroke-width: 1; stroke-dasharray: none; stroke-linecap: butt; stroke-linejoin: miter; stroke-miterlimit: 10; fill: rgb(0,0,0); fill-rule: nonzero; opacity: 1;" transform=" matrix(1 0 0 1 0 0) " stroke-linecap="round" />
</g>
</svg>